<svg xmlns="http://www.w3.org/2000/svg" width="1920" height="1080">
<path d="M425.5347868994017,5.266298649232098L505.6595831255086,211.12539049169138L435.09765828008926,267.493824707285L257.4191456510551,222.8260422027792L318.98489519112206,41.75030826140568Z" fill="#b30c08" stroke="#ab0b08" stroke-width="1.51"/>
<path d="M-486.4488980458263,1007.2015046513079L-128.0234208658623,1083.139105748758L-64.38752196836556,1248.5924428822495L-73.50907888622798,1263.3220681273904L-1959.290267467892,1156.8666784493932Z" fill="#ea0b08" stroke="#e40b08" stroke-width="1.51"/>
<path d="M-64.38752196836556,1248.5924428822495L95.13564393322001,1209.5092672363612L134.77415243436144,1241.7277593678307L-93.47336065573771,1671.6823770491803L-73.50907888622798,1263.3220681273904Z" fill="#d90c08" stroke="#ce0c08" stroke-width="1.51"/>
<path d="M1457.7779291553134,1219.3446866485015L1347.8781204926217,1295.5876789082436L1630.2996511716083,6402.710358686585L1751.4800190294957,2804.180304471932L1702.8494809688582,2026.09169550173L1641.826878388846,1513.8230054221533Z" fill="#d70a07" stroke="#dd0b07" stroke-width="1.51"/>
<path d="M2022.4141488941548,7.125164560294898L1979.3769334084311,161.01581387288246L1833.9961066931744,164.70568257123924L1808.5591443461399,23.646164101321055L1911.188559532071,-33.092049172201854L2008.7348350599782,-6.622205561613967Z" fill="#ad0c08" stroke="#a20b07" stroke-width="1.51"/>
<path d="M2008.7348350599782,-6.622205561613967L2006.375752680276,-181.19430165956823L1999.9880004582164,-191.18365885789564L1859.3964379947229,-208.62137203166228L1832.3796112653708,-159.60115033716778L1911.188559532071,-33.092049172201854Z" fill="#a70a07" stroke="#c80c08" stroke-width="1.51"/>
<path d="M2022.4141488941548,7.125164560294898L3640.785914016078,-198.95962950017474L2006.375752680276,-181.19430165956823L2008.7348350599782,-6.622205561613967Z" fill="#e70b08" stroke="#fd0c08" stroke-width="1.51"/>
<path d="M1674.2868060091444,-26.358706727629002L1808.5591443461399,23.646164101321055L1911.188559532071,-33.092049172201854L1832.3796112653708,-159.60115033716778L1695.2107182550708,-116.78542650736316L1667.8761857005557,-77.09418745560153Z" fill="#b00c08" stroke="#b30c08" stroke-width="1.51"/>
<path d="M-78.59903833311073,403.59970615733937L-48.305804176837526,522.917954976946L-129.05351710150273,574.9735871669586L-667.7655945419103,515.9366471734893L-106.4561496616691,364.2313918004511Z" fill="#ed0c08" stroke="#d20a07" stroke-width="1.51"/>
<path d="M-106.4561496616691,364.2313918004511L-90.51979851686022,239.69175877990767L-96.29756097560974,233.0L-7416.5,233.0L-691.1860227192549,516.9577012629647L-667.7655945419103,515.9366471734893Z" fill="#ce0a07" stroke="#fe0c08" stroke-width="1.51"/>
<path d="M434.0323290993809,-6.019499585115213L425.5347868994017,5.266298649232098L505.6595831255086,211.12539049169138L612.5903588506441,223.65284538836L646.8809815950921,195.49146439050412L666.3748268442926,25.979766571369623Z" fill="#9f0b08" stroke="#9f0c08" stroke-width="1.51"/>
<path d="M809.5816878449968,222.01898640388248L809.5813991235188,222.01870637883462L646.8809815950921,195.49146439050412L612.5903588506441,223.65284538836L627.1624354077735,313.81756908559873L782.0462232243517,392.8399098083427L796.3936889556725,374.18820435762586Z" fill="#6d0a07" stroke="#690a07" stroke-width="1.51"/>
<path d="M260.8689388615601,488.3120168657765L322.2179376959644,553.8630019217154L194.46566273825113,718.274625345555L109.49695328368315,703.7677725118483L51.466173361522195,549.6860465116279L56.20153714773697,544.7719897523484Z" fill="#a90b08" stroke="#b90c08" stroke-width="1.51"/>
<path d="M101.57936179030253,404.4173228346457L242.2967396841569,381.16836474783497L243.0250792393027,231.8587559429477L114.04706195160861,205.64371177878226L72.0,234.91176470588235L72.0,357.5833333333333Z" fill="#c90c08" stroke="#b00b07" stroke-width="1.51"/>
<path d="M72.0,234.91176470588235L-90.51979851686022,239.69175877990767L-96.29756097560974,233.0L-114.93549975381585,31.906450024618408L-106.20355741633094,25.42089949179767L84.46776504297995,70.42406876790831L114.04706195160861,205.64371177878226Z" fill="#d10b07" stroke="#d30b07" stroke-width="1.51"/>
<path d="M72.0,357.5833333333333L-78.59903833311073,403.59970615733937L-106.4561496616691,364.2313918004511L-90.51979851686022,239.69175877990767L72.0,234.91176470588235Z" fill="#d90c08" stroke="#ba0a07" stroke-width="1.51"/>
<path d="M101.57936179030253,404.4173228346457L56.20153714773697,544.7719897523484L260.8689388615601,488.3120168657765L244.2906888720666,384.4216502649508L242.2967396841569,381.16836474783497Z" fill="#b50c08" stroke="#a40b07" stroke-width="1.51"/>
<path d="M101.57936179030253,404.4173228346457L56.20153714773697,544.7719897523484L51.466173361522195,549.6860465116279L-48.305804176837526,522.917954976946L-78.59903833311073,403.59970615733937L72.0,357.5833333333333Z" fill="#d20c08" stroke="#c50b08" stroke-width="1.51"/>
<path d="M955.7652981807569,1005.9919739274249L828.7590712539951,1116.7846399699192L832.8520693641618,1184.4765317919075L972.1266212498363,1238.5637364077033L980.0,1234.0108695652175L980.0,1032.174107142857Z" fill="#380a07" stroke="#430c08" stroke-width="1.51"/>
<path d="M972.1266212498363,1238.5637364077033L933.0742852131204,1585.1532187335556L741.7527420723467,1248.1988591721927L832.8520693641618,1184.4765317919075Z" fill="#5e0c08" stroke="#530b07" stroke-width="1.51"/>
<path d="M-101.93458675441678,761.1080636401393L-129.05351710150273,574.9735871669586L-48.305804176837526,522.917954976946L51.466173361522195,549.6860465116279L109.49695328368315,703.7677725118483L48.07839244513602,759.6586628749262Z" fill="#c10b08" stroke="#ce0c08" stroke-width="1.51"/>
<path d="M-101.93458675441678,761.1080636401393L-129.05351710150273,574.9735871669586L-667.7655945419103,515.9366471734893L-691.1860227192549,516.9577012629647L-105.40148117242099,763.9752790236779Z" fill="#d20a07" stroke="#f30c08" stroke-width="1.51"/>
<path d="M251.09811320754716,843.4905660377358L235.44117647058823,765.2058823529412L423.6925506425615,738.9382487475496L404.49512501965717,869.7207108035855L284.9324720749182,878.8398961976757Z" fill="#870b07" stroke="#970c08" stroke-width="1.51"/>
<path d="M490.525956284153,954.0646630236794L404.49512501965717,869.7207108035855L284.9324720749182,878.8398961976757L298.96230993206086,1009.4927612423164L455.61590296495956,1027.2095366448466Z" fill="#8c0c08" stroke="#7a0b07" stroke-width="1.51"/>
<path d="M468.9882434301521,1077.9395266635931L388.7311959174617,1233.9948968271578L298.23776548889106,1244.563472643633L260.80149404715587,1042.13030114388L298.96230993206086,1009.4927612423164L455.61590296495956,1027.2095366448466Z" fill="#8e0c08" stroke="#940c08" stroke-width="1.51"/>
<path d="M647.6986899563319,1227.9301310043668L411.3401486988847,1251.5659851301116L556.5561754147667,1516.0666052197535L670.2660383883797,1252.8729897976827Z" fill="#7f0c08" stroke="#6e0a07" stroke-width="1.51"/>
<path d="M411.3401486988847,1251.5659851301116L388.7311959174617,1233.9948968271578L298.23776548889106,1244.563472643633L248.35491818519895,1280.5114354778727L130.77129337539432,32087.421135646688L556.5561754147667,1516.0666052197535Z" fill="#ef0c08" stroke="#e30b08" stroke-width="1.51"/>
<path d="M647.6986899563319,1227.9301310043668L616.1468362737907,1139.496062232174L468.9882434301521,1077.9395266635931L388.7311959174617,1233.9948968271578L411.3401486988847,1251.5659851301116Z" fill="#7e0c08" stroke="#810c08" stroke-width="1.51"/>
<path d="M763.5096073127506,711.3586885551721L763.3170572385073,711.1893933208132L744.2491657162168,489.3084737887044L774.3244321669736,465.1439533456108L943.7914120746678,540.3379113178989L886.4381439150033,695.574090470058Z" fill="#520c08" stroke="#4c0b08" stroke-width="1.51"/>
<path d="M1835.8192182410423,1197.5879478827362L1702.8494809688582,2026.09169550173L1641.826878388846,1513.8230054221533L1674.047888346996,1257.2482964961434Z" fill="#720b07" stroke="#820c08" stroke-width="1.51"/>
<path d="M1847.7658201925046,1187.2704280155642L2001.886050383137,1327.828077949421L1751.4800190294957,2804.180304471932L1702.8494809688582,2026.09169550173L1835.8192182410423,1197.5879478827362Z" fill="#910a07" stroke="#a20c08" stroke-width="1.51"/>
<path d="M1644.6552482715274,1215.2219777917453L1674.047888346996,1257.2482964961434L1641.826878388846,1513.8230054221533L1457.7779291553134,1219.3446866485015L1482.104657496936,1164.2894593490398Z" fill="#510b08" stroke="#550c08" stroke-width="1.51"/>
<path d="M1688.4863470965026,191.21401076594594L1812.348324919688,180.41578705828363L1833.9961066931744,164.70568257123924L1808.5591443461399,23.646164101321055L1674.2868060091444,-26.358706727629002L1656.9841463903476,8.718503226840909Z" fill="#820a07" stroke="#9e0c08" stroke-width="1.51"/>
<path d="M1688.4863470965026,191.21401076594594L1812.348324919688,180.41578705828363L1844.0276862228081,354.65227422544496L1683.446451289564,347.72071012760705L1676.5540557067295,204.51204635093404Z" fill="#870c08" stroke="#7c0b08" stroke-width="1.51"/>
<path d="M615.6863424910032,496.9942947423857L744.2491657162168,489.3084737887044L763.3170572385073,711.1893933208132L636.0761390887291,676.1332219938336Z" fill="#560a07" stroke="#5a0b07" stroke-width="1.51"/>
<path d="M969.2395711896194,525.0239748593441L943.7914120746678,540.3379113178989L774.3244321669736,465.1439533456108L782.0462232243517,392.8399098083427L796.3936889556725,374.18820435762586L972.8719270420302,364.29222839016654Z" fill="#4c0a07" stroke="#520b07" stroke-width="1.51"/>
<path d="M1534.14375,-2160.1375L1859.3964379947229,-208.62137203166228L1832.3796112653708,-159.60115033716778L1695.2107182550708,-116.78542650736316L1542.390677025527,-1011.0656677765446Z" fill="#f00c08" stroke="#d30a07" stroke-width="1.51"/>
<path d="M246.5329974313377,-158.57992491602448L414.38359537791246,-133.24398560333395L440.37028287414864,-76.49754556053261L434.0323290993809,-6.019499585115213L425.5347868994017,5.266298649232098L318.98489519112206,41.75030826140568L263.81516876779176,9.057137047580312Z" fill="#b10a07" stroke="#ba0b07" stroke-width="1.51"/>
<path d="M139.9109229668495,-1.325900310040538L84.46776504297995,70.42406876790831L114.04706195160861,205.64371177878226L243.0250792393027,231.8587559429477L257.4191456510551,222.8260422027792L318.98489519112206,41.75030826140568L263.81516876779176,9.057137047580312Z" fill="#b10a07" stroke="#b50a07" stroke-width="1.51"/>
<path d="M126.46347631154487,1030.1224336367861L109.13868406125923,960.4900955539073L53.874606886541414,908.7041770824933L-51.727293925615015,944.4224670630757L-83.22058129164262,1051.9605214836577L93.32681846020824,1080.4797168281875Z" fill="#c70c08" stroke="#b50b08" stroke-width="1.51"/>
<path d="M-51.727293925615015,944.4224670630757L-150.3557636257651,846.8321917808219L-105.40148117242099,763.9752790236779L-101.93458675441678,761.1080636401393L48.07839244513602,759.6586628749262L53.874606886541414,908.7041770824933Z" fill="#c80c08" stroke="#cf0c08" stroke-width="1.51"/>
<path d="M109.13868406125923,960.4900955539073L251.09811320754716,843.4905660377358L235.44117647058823,765.2058823529412L194.46566273825113,718.274625345555L109.49695328368315,703.7677725118483L48.07839244513602,759.6586628749262L53.874606886541414,908.7041770824933Z" fill="#9f0b07" stroke="#950a07" stroke-width="1.51"/>
<path d="M126.46347631154487,1030.1224336367861L260.80149404715587,1042.13030114388L298.96230993206086,1009.4927612423164L284.9324720749182,878.8398961976757L251.09811320754716,843.4905660377358L109.13868406125923,960.4900955539073Z" fill="#a30c08" stroke="#890a07" stroke-width="1.51"/>
<path d="M-51.727293925615015,944.4224670630757L-150.3557636257651,846.8321917808219L-486.4488980458263,1007.2015046513079L-128.0234208658623,1083.139105748758L-83.22058129164262,1051.9605214836577Z" fill="#ce0b07" stroke="#df0c08" stroke-width="1.51"/>
<path d="M93.32681846020824,1080.4797168281875L95.13564393322001,1209.5092672363612L-64.38752196836556,1248.5924428822495L-128.0234208658623,1083.139105748758L-83.22058129164262,1051.9605214836577Z" fill="#b20a07" stroke="#b00a07" stroke-width="1.51"/>
<path d="M126.46347631154487,1030.1224336367861L260.80149404715587,1042.13030114388L298.23776548889106,1244.563472643633L248.35491818519895,1280.5114354778727L134.77415243436144,1241.7277593678307L95.13564393322001,1209.5092672363612L93.32681846020824,1080.4797168281875Z" fill="#a10b07" stroke="#a00b07" stroke-width="1.51"/>
<path d="M676.1586572438163,1040.696113074205L564.6840425531915,911.0744680851063L575.210396039604,891.9356435643565L732.719440353461,843.7564064801178L791.1806962761186,923.1662791083945L754.4267507378588,1024.390260262946Z" fill="#510b07" stroke="#580c08" stroke-width="1.51"/>
<path d="M732.719440353461,843.7564064801178L763.5096073127506,711.3586885551721L763.3170572385073,711.1893933208132L636.0761390887291,676.1332219938336L524.5952380952381,718.3979591836735L575.210396039604,891.9356435643565Z" fill="#4e0a07" stroke="#5f0c08" stroke-width="1.51"/>
<path d="M564.6840425531915,911.0744680851063L490.525956284153,954.0646630236794L404.49512501965717,869.7207108035855L423.6925506425615,738.9382487475496L472.5906344410876,696.1102719033232L524.5952380952381,718.3979591836735L575.210396039604,891.9356435643565Z" fill="#6e0b08" stroke="#720b08" stroke-width="1.51"/>
<path d="M676.1586572438163,1040.696113074205L616.1468362737907,1139.496062232174L468.9882434301521,1077.9395266635931L455.61590296495956,1027.2095366448466L490.525956284153,954.0646630236794L564.6840425531915,911.0744680851063Z" fill="#600a07" stroke="#670b07" stroke-width="1.51"/>
<path d="M732.719440353461,843.7564064801178L763.5096073127506,711.3586885551721L886.4381439150033,695.574090470058L951.0029719602015,755.8818968859026L983.1351378345985,874.0453455852976L948.036936985855,918.8332337849212L791.1806962761186,923.1662791083945Z" fill="#350b07" stroke="#3d0c08" stroke-width="1.51"/>
<path d="M754.4267507378588,1024.390260262946L828.7590712539951,1116.7846399699192L955.7652981807569,1005.9919739274249L948.036936985855,918.8332337849212L791.1806962761186,923.1662791083945Z" fill="#380b07" stroke="#340a07" stroke-width="1.51"/>
<path d="M676.1586572438163,1040.696113074205L616.1468362737907,1139.496062232174L647.6986899563319,1227.9301310043668L670.2660383883797,1252.8729897976827L741.7527420723467,1248.1988591721927L832.8520693641618,1184.4765317919075L828.7590712539951,1116.7846399699192L754.4267507378588,1024.390260262946Z" fill="#500a07" stroke="#550b07" stroke-width="1.51"/>
<path d="M1482.3621495327102,693.0817757009346L1484.379518072289,582.1265060240964L1494.428551695559,546.3179777608951L1646.8702220187686,504.5194552529183L1670.6228127025274,683.9834737524303L1590.536088474971,717.5081490104773Z" fill="#430c08" stroke="#3b0a07" stroke-width="1.51"/>
<path d="M578.0864476386037,475.72566735112935L425.5390366892714,572.4630499043644L391.79428322498495,555.9956102137926L408.727444002512,380.5064894285116L437.2231450719823,345.71173864894797L572.0530900041476,437.39610120282043Z" fill="#7a0a07" stroke="#880c08" stroke-width="1.51"/>
<path d="M408.727444002512,380.5064894285116L244.2906888720666,384.4216502649508L260.8689388615601,488.3120168657765L322.2179376959644,553.8630019217154L391.79428322498495,555.9956102137926Z" fill="#a30c08" stroke="#a40c08" stroke-width="1.51"/>
<path d="M425.5390366892714,572.4630499043644L472.5906344410876,696.1102719033232L423.6925506425615,738.9382487475496L235.44117647058823,765.2058823529412L194.46566273825113,718.274625345555L322.2179376959644,553.8630019217154L391.79428322498495,555.9956102137926Z" fill="#860b07" stroke="#7e0a07" stroke-width="1.51"/>
<path d="M578.0864476386037,475.72566735112935L615.6863424910032,496.9942947423857L636.0761390887291,676.1332219938336L524.5952380952381,718.3979591836735L472.5906344410876,696.1102719033232L425.5390366892714,572.4630499043644Z" fill="#690b07" stroke="#670a07" stroke-width="1.51"/>
<path d="M572.0530900041476,437.39610120282043L627.1624354077735,313.81756908559873L612.5903588506441,223.65284538836L505.6595831255086,211.12539049169138L435.09765828008926,267.493824707285L437.2231450719823,345.71173864894797Z" fill="#880b08" stroke="#940c08" stroke-width="1.51"/>
<path d="M408.727444002512,380.5064894285116L244.2906888720666,384.4216502649508L242.2967396841569,381.16836474783497L243.0250792393027,231.8587559429477L257.4191456510551,222.8260422027792L435.09765828008926,267.493824707285L437.2231450719823,345.71173864894797Z" fill="#9c0b07" stroke="#b20c08" stroke-width="1.51"/>
<path d="M578.0864476386037,475.72566735112935L615.6863424910032,496.9942947423857L744.2491657162168,489.3084737887044L774.3244321669736,465.1439533456108L782.0462232243517,392.8399098083427L627.1624354077735,313.81756908559873L572.0530900041476,437.39610120282043Z" fill="#6a0b08" stroke="#6f0c08" stroke-width="1.51"/>
<path d="M1133.884494054841,667.4891612068268L951.0029719602015,755.8818968859026L886.4381439150033,695.574090470058L943.7914120746678,540.3379113178989L969.2395711896194,525.0239748593441L1067.9825979720472,543.2602996254682Z" fill="#2f0a07" stroke="#3a0c08" stroke-width="1.51"/>
<path d="M1217.1982515928285,710.152244777004L1107.2773037542663,885.0802047781569L983.1351378345985,874.0453455852976L951.0029719602015,755.8818968859026L1133.884494054841,667.4891612068268Z" fill="#1a0b08" stroke="#1b0b08" stroke-width="1.51"/>
<path d="M603.6181283192192,-132.15465767188172L577.0120358768054,-147.595693464354L440.37028287414864,-76.49754556053261L434.0323290993809,-6.019499585115213L666.3748268442926,25.979766571369623L675.1226638979531,17.830465737169988Z" fill="#bb0c08" stroke="#a00a07" stroke-width="1.51"/>
<path d="M771.1414634146341,-19.995121951219502L837.9823942567673,15.322575131304959L809.5813991235188,222.01870637883462L646.8809815950921,195.49146439050412L666.3748268442926,25.979766571369623L675.1226638979531,17.830465737169988Z" fill="#9a0c08" stroke="#910b08" stroke-width="1.51"/>
<path d="M428.46711074104917,-481.81099084096587L414.38359537791246,-133.24398560333395L246.5329974313377,-158.57992491602448L238.0321725965178,-166.8609008327025Z" fill="#c40a07" stroke="#ee0c08" stroke-width="1.51"/>
<path d="M1088.9729309271936,1064.2822028624767L980.0,1032.174107142857L955.7652981807569,1005.9919739274249L948.036936985855,918.8332337849212L983.1351378345985,874.0453455852976L1107.2773037542663,885.0802047781569L1141.6010041346722,928.7649143532192Z" fill="#200b08" stroke="#1f0b07" stroke-width="1.51"/>
<path d="M1489.9239912417893,972.0748357835471L1475.3245439768828,698.3351995665523L1319.1522543050316,731.4950692913974L1315.9493863006467,927.9376402270028L1489.1101426307448,974.3954041204438Z" fill="#1a0a07" stroke="#1f0c08" stroke-width="1.51"/>
<path d="M1319.1522543050316,731.4950692913974L1255.7942878246954,704.7487997045426L1217.1982515928285,710.152244777004L1107.2773037542663,885.0802047781569L1141.6010041346722,928.7649143532192L1261.0956776871333,973.9227851724631L1315.9493863006467,927.9376402270028Z" fill="#050b07" stroke="#060c08" stroke-width="1.51"/>
<path d="M1489.9239912417893,972.0748357835471L1647.8720364741641,854.5768996960486L1590.536088474971,717.5081490104773L1482.3621495327102,693.0817757009346L1475.3245439768828,698.3351995665523Z" fill="#2f0b07" stroke="#310b08" stroke-width="1.51"/>
<path d="M2042.9487917146146,1063.2180667433831L2040.008028071668,1064.92838534744L2055.3546565649344,1275.5957401186477L3752.0153482880755,1109.6180637544273Z" fill="#ce0c08" stroke="#b90b07" stroke-width="1.51"/>
<path d="M1139.85682635667,68.08468435594015L1189.9016716170477,13.216239552393446L1078.6976956233423,-116.76243368700266L995.659176959841,-131.47812053876234L941.1484595345232,11.145811354877608L974.7829031605903,46.13336478199339Z" fill="#8a0b08" stroke="#970c08" stroke-width="1.51"/>
<path d="M958.1787876629389,231.15065175582305L809.5816878449968,222.01898640388248L809.5813991235188,222.01870637883462L837.9823942567673,15.322575131304959L941.1484595345232,11.145811354877608L974.7829031605903,46.13336478199339Z" fill="#810c08" stroke="#7c0b08" stroke-width="1.51"/>
<path d="M886.828593754003,-4555.259741756975L622.6017749244713,-1400.7150679758308L640.9813953488372,-897.7818181818182L733.978696544106,-170.71200883698913L771.9812169047857,-109.00899190728344L958.0165448249327,-228.46325509811464L1011.4952830188679,-1725.8679245283017Z" fill="#fc0c08" stroke="#d20a07" stroke-width="1.51"/>
<path d="M771.9812169047857,-109.00899190728344L771.1414634146341,-19.995121951219502L837.9823942567673,15.322575131304959L941.1484595345232,11.145811354877608L995.659176959841,-131.47812053876234L958.0165448249327,-228.46325509811464Z" fill="#ab0c08" stroke="#9c0b08" stroke-width="1.51"/>
<path d="M771.9812169047857,-109.00899190728344L771.1414634146341,-19.995121951219502L675.1226638979531,17.830465737169988L603.6181283192192,-132.15465767188172L733.978696544106,-170.71200883698913Z" fill="#b60c08" stroke="#970a07" stroke-width="1.51"/>
<path d="M640.9813953488372,-897.7818181818182L577.0120358768054,-147.595693464354L603.6181283192192,-132.15465767188172L733.978696544106,-170.71200883698913Z" fill="#cd0b08" stroke="#bc0a07" stroke-width="1.51"/>
<path d="M622.6017749244713,-1400.7150679758308L428.46711074104917,-481.81099084096587L414.38359537791246,-133.24398560333395L440.37028287414864,-76.49754556053261L577.0120358768054,-147.595693464354L640.9813953488372,-897.7818181818182Z" fill="#f90c08" stroke="#e00b07" stroke-width="1.51"/>
<path d="M-65.10453778361148,-86.06019126195388L87.42047678349049,-149.17399039316848L105.83673047789563,-188.10659688748106L37.30024813895781,-528.2506203473945L-111.15921052631579,-157.10197368421052Z" fill="#dc0b07" stroke="#d80b07" stroke-width="1.51"/>
<path d="M105.83673047789563,-188.10659688748106L238.0321725965178,-166.8609008327025L246.5329974313377,-158.57992491602448L263.81516876779176,9.057137047580312L139.9109229668495,-1.325900310040538L87.42047678349049,-149.17399039316848Z" fill="#e20c08" stroke="#e80c08" stroke-width="1.51"/>
<path d="M-65.10453778361148,-86.06019126195388L-106.20355741633094,25.42089949179767L84.46776504297995,70.42406876790831L139.9109229668495,-1.325900310040538L87.42047678349049,-149.17399039316848Z" fill="#d40a07" stroke="#e30b08" stroke-width="1.51"/>
<path d="M1141.0811910185487,1162.7089163683697L1262.9948171327987,1051.7875024447487L1327.7197736748064,1099.6941631923764L1284.8823529411766,1256.764705882353L1163.3151691050168,1238.4981342178523L1132.6951979472142,1204.1357221407625Z" fill="#280a07" stroke="#280a07" stroke-width="1.51"/>
<path d="M1262.9948171327987,1051.7875024447487L1261.0956776871333,973.9227851724631L1315.9493863006467,927.9376402270028L1489.1101426307448,974.3954041204438L1506.8254670599804,1024.5888233366109L1472.0241669089082,1116.2696678206178L1327.7197736748064,1099.6941631923764Z" fill="#1f0b07" stroke="#1d0a07" stroke-width="1.51"/>
<path d="M1284.8823529411766,1256.764705882353L1347.8781204926217,1295.5876789082436L1457.7779291553134,1219.3446866485015L1482.104657496936,1164.2894593490398L1472.0241669089082,1116.2696678206178L1327.7197736748064,1099.6941631923764Z" fill="#310a07" stroke="#3a0c08" stroke-width="1.51"/>
<path d="M1141.0811910185487,1162.7089163683697L1088.9729309271936,1064.2822028624767L1141.6010041346722,928.7649143532192L1261.0956776871333,973.9227851724631L1262.9948171327987,1051.7875024447487Z" fill="#1b0c08" stroke="#1b0c08" stroke-width="1.51"/>
<path d="M1163.3151691050168,1238.4981342178523L1062.437404190087,2580.9483903934597L1572.3151733038349,11146.894911504425L1630.2996511716083,6402.710358686585L1347.8781204926217,1295.5876789082436L1284.8823529411766,1256.764705882353Z" fill="#fb0c08" stroke="#f00c08" stroke-width="1.51"/>
<path d="M1132.6951979472142,1204.1357221407625L980.0,1234.0108695652175L972.1266212498363,1238.5637364077033L933.0742852131204,1585.1532187335556L1062.437404190087,2580.9483903934597L1163.3151691050168,1238.4981342178523Z" fill="#670b08" stroke="#690c08" stroke-width="1.51"/>
<path d="M1141.0811910185487,1162.7089163683697L1088.9729309271936,1064.2822028624767L980.0,1032.174107142857L980.0,1234.0108695652175L1132.6951979472142,1204.1357221407625Z" fill="#2d0b07" stroke="#2a0a07" stroke-width="1.51"/>
<path d="M9779.027515723272,-797.3954402515724L3640.785914016078,-198.95962950017474L2022.4141488941548,7.125164560294898L1979.3769334084311,161.01581387288246L2025.1783907092492,241.78021567814187Z" fill="#fc0c08" stroke="#fc0c08" stroke-width="1.51"/>
<path d="M2002.2510065425265,335.30938600905887L1873.030285302853,375.8114031140311L1844.0276862228081,354.65227422544496L1812.348324919688,180.41578705828363L1833.9961066931744,164.70568257123924L1979.3769334084311,161.01581387288246L2025.1783907092492,241.78021567814187Z" fill="#8e0b08" stroke="#990c08" stroke-width="1.51"/>
<path d="M1840.7387133182845,513.4350075244545L1873.030285302853,375.8114031140311L1844.0276862228081,354.65227422544496L1683.446451289564,347.72071012760705L1665.9950464712492,372.0184352977224L1684.2144103714784,471.39678384442783L1802.7977137176938,533.8933896620279Z" fill="#760c08" stroke="#6a0b08" stroke-width="1.51"/>
<path d="M1760.7260273972602,675.1340508806262L1670.6228127025274,683.9834737524303L1646.8702220187686,504.5194552529183L1684.2144103714784,471.39678384442783L1802.7977137176938,533.8933896620279Z" fill="#580b08" stroke="#560b08" stroke-width="1.51"/>
<path d="M1471.2236373986054,170.01572506048097L1467.2713823053143,83.78470484322096L1656.9841463903476,8.718503226840909L1688.4863470965026,191.21401076594594L1676.5540557067295,204.51204635093404L1514.2728075338434,202.6574035146725Z" fill="#700a07" stroke="#780b07" stroke-width="1.51"/>
<path d="M1523.0350620067643,372.89549041713644L1665.9950464712492,372.0184352977224L1683.446451289564,347.72071012760705L1676.5540557067295,204.51204635093404L1514.2728075338434,202.6574035146725Z" fill="#600a07" stroke="#6a0b08" stroke-width="1.51"/>
<path d="M1464.8293904646953,424.0120096560048L1494.428551695559,546.3179777608951L1646.8702220187686,504.5194552529183L1684.2144103714784,471.39678384442783L1665.9950464712492,372.0184352977224L1523.0350620067643,372.89549041713644Z" fill="#5c0c08" stroke="#550b08" stroke-width="1.51"/>
<path d="M1153.883852538536,-174.31233157270668L1078.6976956233423,-116.76243368700266L995.659176959841,-131.47812053876234L958.0165448249327,-228.46325509811464L1011.4952830188679,-1725.8679245283017L1143.564406779661,-757.3610169491526Z" fill="#c40a07" stroke="#c50a07" stroke-width="1.51"/>
<path d="M1467.910931174089,-204.2017543859649L1287.2447564629642,-159.46536826701973L1262.4768014904741,-107.58654366247971L1266.4877962504422,-15.779330267657116L1297.3506620892595,-1.817557626287396L1403.3654503990879,4.967388825541633L1489.7693520990051,-141.05520504731862Z" fill="#9a0c08" stroke="#970b08" stroke-width="1.51"/>
<path d="M1403.3654503990879,4.967388825541633L1467.2713823053143,83.78470484322096L1471.2236373986054,170.01572506048097L1308.5868430860976,267.02714622934525L1302.7033919756993,260.46620680926463L1297.3506620892595,-1.817557626287396Z" fill="#6c0a07" stroke="#6d0b07" stroke-width="1.51"/>
<path d="M1262.4768014904741,-107.58654366247971L1153.883852538536,-174.31233157270668L1078.6976956233423,-116.76243368700266L1189.9016716170477,13.216239552393446L1266.4877962504422,-15.779330267657116Z" fill="#8a0b07" stroke="#990c08" stroke-width="1.51"/>
<path d="M1489.7693520990051,-141.05520504731862L1667.8761857005557,-77.09418745560153L1674.2868060091444,-26.358706727629002L1656.9841463903476,8.718503226840909L1467.2713823053143,83.78470484322096L1403.3654503990879,4.967388825541633Z" fill="#920b08" stroke="#840a07" stroke-width="1.51"/>
<path d="M1262.4768014904741,-107.58654366247971L1153.883852538536,-174.31233157270668L1143.564406779661,-757.3610169491526L1287.2447564629642,-159.46536826701973Z" fill="#a60a07" stroke="#bc0c08" stroke-width="1.51"/>
<path d="M1467.910931174089,-204.2017543859649L1542.390677025527,-1011.0656677765446L1534.14375,-2160.1375L1034.9259683179196,-10860.790266459115L886.828593754003,-4555.259741756975L1011.4952830188679,-1725.8679245283017L1143.564406779661,-757.3610169491526L1287.2447564629642,-159.46536826701973Z" fill="#cf0a07" stroke="#f60c08" stroke-width="1.51"/>
<path d="M1467.910931174089,-204.2017543859649L1542.390677025527,-1011.0656677765446L1695.2107182550708,-116.78542650736316L1667.8761857005557,-77.09418745560153L1489.7693520990051,-141.05520504731862Z" fill="#ae0a07" stroke="#c30c08" stroke-width="1.51"/>
<path d="M1159.3227222832052,395.91767288693745L1306.826082047422,350.9567557395559L1319.501271994912,366.9933220267119L1290.813432835821,517.6044776119403L1266.1465351470692,550.4062032618759L1130.2330360604885,486.54323381155484Z" fill="#480c08" stroke="#430c08" stroke-width="1.51"/>
<path d="M1319.501271994912,366.9933220267119L1464.8293904646953,424.0120096560048L1494.428551695559,546.3179777608951L1484.379518072289,582.1265060240964L1290.813432835821,517.6044776119403Z" fill="#3f0b07" stroke="#3d0b07" stroke-width="1.51"/>
<path d="M1266.1465351470692,550.4062032618759L1255.7942878246954,704.7487997045426L1319.1522543050316,731.4950692913974L1475.3245439768828,698.3351995665523L1482.3621495327102,693.0817757009346L1484.379518072289,582.1265060240964L1290.813432835821,517.6044776119403Z" fill="#2c0c08" stroke="#270b07" stroke-width="1.51"/>
<path d="M1130.2330360604885,486.54323381155484L1067.9825979720472,543.2602996254682L1133.884494054841,667.4891612068268L1217.1982515928285,710.152244777004L1255.7942878246954,704.7487997045426L1266.1465351470692,550.4062032618759Z" fill="#290b08" stroke="#280b07" stroke-width="1.51"/>
<path d="M1306.826082047422,350.9567557395559L1308.5868430860976,267.02714622934525L1471.2236373986054,170.01572506048097L1514.2728075338434,202.6574035146725L1523.0350620067643,372.89549041713644L1464.8293904646953,424.0120096560048L1319.501271994912,366.9933220267119Z" fill="#600c08" stroke="#600c08" stroke-width="1.51"/>
<path d="M1183.3760606839805,197.50822833633325L1079.266393442623,333.6516393442623L1000.86631183469,318.1393237319975L977.6094544222298,250.81684174855982L1148.4641635611822,149.07190259839706Z" fill="#650c08" stroke="#6c0c08" stroke-width="1.51"/>
<path d="M1183.3760606839805,197.50822833633325L1302.7033919756993,260.46620680926463L1308.5868430860976,267.02714622934525L1306.826082047422,350.9567557395559L1159.3227222832052,395.91767288693745L1079.266393442623,333.6516393442623Z" fill="#5b0c08" stroke="#5c0c08" stroke-width="1.51"/>
<path d="M1000.86631183469,318.1393237319975L972.8719270420302,364.29222839016654L969.2395711896194,525.0239748593441L1067.9825979720472,543.2602996254682L1130.2330360604885,486.54323381155484L1159.3227222832052,395.91767288693745L1079.266393442623,333.6516393442623Z" fill="#4d0c08" stroke="#450b07" stroke-width="1.51"/>
<path d="M977.6094544222298,250.81684174855982L958.1787876629389,231.15065175582305L809.5816878449968,222.01898640388248L796.3936889556725,374.18820435762586L972.8719270420302,364.29222839016654L1000.86631183469,318.1393237319975Z" fill="#5e0b07" stroke="#640b08" stroke-width="1.51"/>
<path d="M1148.4641635611822,149.07190259839706L1139.85682635667,68.08468435594015L974.7829031605903,46.13336478199339L958.1787876629389,231.15065175582305L977.6094544222298,250.81684174855982Z" fill="#660a07" stroke="#750c08" stroke-width="1.51"/>
<path d="M1183.3760606839805,197.50822833633325L1302.7033919756993,260.46620680926463L1297.3506620892595,-1.817557626287396L1266.4877962504422,-15.779330267657116L1189.9016716170477,13.216239552393446L1139.85682635667,68.08468435594015L1148.4641635611822,149.07190259839706Z" fill="#6a0a07" stroke="#720b07" stroke-width="1.51"/>
<path d="M4538.425272444214,681.9558380902959L13125.421348314607,831.8875156054931L3752.0153482880755,1109.6180637544273L2042.9487917146146,1063.2180667433831L2068.7181268051163,855.6317562921193L2396.1797422778095,713.5257722190638Z" fill="#ed0c08" stroke="#ed0c08" stroke-width="1.51"/>
<path d="M1921.211669699727,1059.2261601455868L1890.84375,939.1041666666666L1809.6334635969756,862.3006399909382L1726.468232132574,904.1032695629918L1696.3811578309428,1034.9470578049695L1699.3194753985942,1039.0816903823077L1856.6625019096048,1111.495242356125Z" fill="#550b07" stroke="#510a07" stroke-width="1.51"/>
<path d="M1809.6334635969756,862.3006399909382L1839.7851602895553,753.2520036194416L1760.7260273972602,675.1340508806262L1670.6228127025274,683.9834737524303L1590.536088474971,717.5081490104773L1647.8720364741641,854.5768996960486L1726.468232132574,904.1032695629918Z" fill="#4d0b08" stroke="#520c08" stroke-width="1.51"/>
<path d="M1696.3811578309428,1034.9470578049695L1506.8254670599804,1024.5888233366109L1489.1101426307448,974.3954041204438L1489.9239912417893,972.0748357835471L1647.8720364741641,854.5768996960486L1726.468232132574,904.1032695629918Z" fill="#3f0c08" stroke="#380b07" stroke-width="1.51"/>
<path d="M1890.84375,939.1041666666666L2031.3610603290676,845.4259597806216L1920.1909592278905,735.2664959621824L1839.7851602895553,753.2520036194416L1809.6334635969756,862.3006399909382Z" fill="#660b08" stroke="#700c08" stroke-width="1.51"/>
<path d="M1699.3194753985942,1039.0816903823077L1644.6552482715274,1215.2219777917453L1482.104657496936,1164.2894593490398L1472.0241669089082,1116.2696678206178L1506.8254670599804,1024.5888233366109L1696.3811578309428,1034.9470578049695Z" fill="#390a07" stroke="#390a07" stroke-width="1.51"/>
<path d="M1856.6625019096048,1111.495242356125L1847.7658201925046,1187.2704280155642L1835.8192182410423,1197.5879478827362L1674.047888346996,1257.2482964961434L1644.6552482715274,1215.2219777917453L1699.3194753985942,1039.0816903823077Z" fill="#5c0b08" stroke="#580b07" stroke-width="1.51"/>
<path d="M1921.211669699727,1059.2261601455868L2040.008028071668,1064.92838534744L2042.9487917146146,1063.2180667433831L2068.7181268051163,855.6317562921193L2031.3610603290676,845.4259597806216L1890.84375,939.1041666666666Z" fill="#7a0c08" stroke="#6e0a07" stroke-width="1.51"/>
<path d="M1921.211669699727,1059.2261601455868L2040.008028071668,1064.92838534744L2055.3546565649344,1275.5957401186477L2001.886050383137,1327.828077949421L1847.7658201925046,1187.2704280155642L1856.6625019096048,1111.495242356125Z" fill="#770b08" stroke="#800c08" stroke-width="1.51"/>
<path d="M2302.5381195707714,683.261369443025L2034.1401083677113,480.4024074872237L1957.385926103073,563.118079636494L1985.0057692307691,647.3820078226858Z" fill="#880b08" stroke="#860b08" stroke-width="1.51"/>
<path d="M1985.0057692307691,647.3820078226858L1920.1909592278905,735.2664959621824L1839.7851602895553,753.2520036194416L1760.7260273972602,675.1340508806262L1802.7977137176938,533.8933896620279L1840.7387133182845,513.4350075244545L1957.385926103073,563.118079636494Z" fill="#5f0a07" stroke="#640b07" stroke-width="1.51"/>
<path d="M2034.1401083677113,480.4024074872237L2042.666823751178,392.1258246936852L2002.2510065425265,335.30938600905887L1873.030285302853,375.8114031140311L1840.7387133182845,513.4350075244545L1957.385926103073,563.118079636494Z" fill="#760a07" stroke="#770a07" stroke-width="1.51"/>
<path d="M2302.5381195707714,683.261369443025L2396.1797422778095,713.5257722190638L4538.425272444214,681.9558380902959L2042.666823751178,392.1258246936852L2034.1401083677113,480.4024074872237Z" fill="#d20b07" stroke="#d90b07" stroke-width="1.51"/>
<path d="M2302.5381195707714,683.261369443025L2396.1797422778095,713.5257722190638L2068.7181268051163,855.6317562921193L2031.3610603290676,845.4259597806216L1920.1909592278905,735.2664959621824L1985.0057692307691,647.3820078226858Z" fill="#940c08" stroke="#830b07" stroke-width="1.51"/>
</svg>